<?xml version="1.0" encoding="utf-8"?>
<!-- Generator: Adobe Illustrator 17.0.1, SVG Export Plug-In . SVG Version: 6.00 Build 0)  -->
<!DOCTYPE svg PUBLIC "-//W3C//DTD SVG 1.1//EN" "http://www.w3.org/Graphics/SVG/1.1/DTD/svg11.dtd">
<svg version="1.1" id="Layer_1" xmlns="http://www.w3.org/2000/svg" xmlns:xlink="http://www.w3.org/1999/xlink" x="0px" y="0px"
	 width="576px" height="144px" viewBox="0 0 576 144" enable-background="new 0 0 576 144" xml:space="preserve">
<g>
	<g>
		<path fill="none" d="M71.4,117.687c25.301,0,45.81-20.453,45.81-45.69c0-25.224-20.509-45.678-45.81-45.678
			c-25.3,0-45.81,20.453-45.81,45.678C25.59,97.234,46.099,117.687,71.4,117.687z"/>
	</g>
	<g>
		<g>
			<g>
				<path fill="#659CD3" d="M110.86,95.216c-2.691-1.579-5.565-2.529-8.356-3.193c-2.794-0.653-5.506-1.021-7.967-1.235
					c-2.467-0.213-4.681-0.273-6.591-0.106c-1.92,0.166-3.529,0.563-4.952,1.389c-1.422,0.819-2.556,2.006-3.643,3.573
					c-1.08,1.567-2.128,3.501-3.175,5.733c-1.042,2.232-2.089,4.749-2.925,7.491c-0.831,2.742-1.444,5.703-1.42,8.814
					c0.024,3.11,0.73,6.078,2.28,8.707c1.544,2.617,3.946,4.891,7.118,6.445c3.158,1.561,7.086,2.398,11.35,2.172
					c4.256-0.213,8.835-1.501,13.044-3.935c4.211-2.427,7.6-5.734,9.904-9.289c2.309-3.562,3.544-7.36,3.77-10.862
					c0.232-3.514-0.527-6.718-2.026-9.371C115.77,98.896,113.544,96.795,110.86,95.216z"/>
			</g>
		</g>
		<g>
			<g>
				<path fill="#7262AA" d="M111.294,49.533c-2.717,1.537-4.979,3.549-6.945,5.632c-1.958,2.09-3.631,4.244-5.053,6.256
					c-1.413,2.018-2.577,3.882-3.398,5.603c-0.815,1.721-1.283,3.3-1.28,4.973c-0.003,1.674,0.464,3.253,1.28,4.986
					c0.821,1.709,1.985,3.585,3.398,5.602c1.422,2.006,3.095,4.167,5.053,6.256c1.967,2.077,4.228,4.096,6.945,5.627
					c2.708,1.537,5.642,2.416,8.702,2.386c3.047-0.024,6.219-0.974,9.159-2.932c2.935-1.959,5.619-4.938,7.553-8.731
					c1.94-3.78,3.098-8.374,3.092-13.194c0.006-4.807-1.152-9.401-3.092-13.188c-1.934-3.799-4.618-6.772-7.553-8.725
					c-2.94-1.959-6.112-2.908-9.159-2.938C116.936,47.117,114.002,47.995,111.294,49.533z"/>
			</g>
		</g>
		<g>
			<g>
				<path fill="#F17275" d="M71.831,26.319c-0.024,3.11,0.589,6.078,1.42,8.814c0.836,2.736,1.88,5.259,2.925,7.496
					c1.048,2.232,2.095,4.167,3.175,5.734c1.087,1.567,2.22,2.754,3.643,3.573c1.422,0.819,3.032,1.217,4.952,1.383
					c1.911,0.16,4.124,0.107,6.591-0.101c2.461-0.214,5.172-0.582,7.967-1.24c2.791-0.659,5.665-1.614,8.356-3.193
					c2.684-1.573,4.91-3.674,6.41-6.333c1.5-2.647,2.259-5.864,2.023-9.372c-0.226-3.507-1.458-7.3-3.767-10.855
					c-2.304-3.561-5.693-6.861-9.904-9.295c-4.208-2.434-8.788-3.721-13.044-3.935c-4.264-0.225-8.192,0.611-11.353,2.173
					c-3.169,1.561-5.57,3.828-7.115,6.451C72.561,20.242,71.856,23.209,71.831,26.319z"/>
			</g>
		</g>
		<g>
			<g>
				<path fill="#F9AA75" d="M31.937,48.784c2.691,1.579,5.565,2.534,8.359,3.193c2.794,0.659,5.503,1.027,7.967,1.24
					c2.466,0.208,4.681,0.261,6.591,0.101c1.917-0.166,3.529-0.564,4.952-1.383c1.422-0.819,2.556-2.006,3.643-3.573
					c1.08-1.567,2.128-3.502,3.175-5.734c1.042-2.237,2.089-4.76,2.922-7.496c0.834-2.736,1.447-5.704,1.42-8.814
					c-0.024-3.11-0.726-6.078-2.277-8.701c-1.544-2.624-3.949-4.891-7.118-6.451c-3.158-1.561-7.086-2.398-11.35-2.173
					c-4.255,0.214-8.835,1.502-13.043,3.935c-4.214,2.434-7.603,5.734-9.904,9.295c-2.312,3.555-3.544,7.348-3.77,10.855
					c-0.232,3.508,0.53,6.725,2.024,9.372C27.027,45.11,29.256,47.211,31.937,48.784z"/>
			</g>
		</g>
		<g>
			<g>
				<path fill="#FACE78" d="M31.505,94.468c2.715-1.531,4.979-3.549,6.943-5.627c1.961-2.089,3.634-4.25,5.056-6.256
					c1.413-2.018,2.577-3.893,3.398-5.602c0.815-1.733,1.283-3.312,1.28-4.986c0.003-1.673-0.464-3.252-1.28-4.973
					c-0.822-1.721-1.985-3.585-3.398-5.603c-1.422-2.012-3.095-4.166-5.056-6.256c-1.964-2.083-4.228-4.095-6.943-5.632
					c-2.711-1.538-5.639-2.416-8.701-2.386c-3.047,0.03-6.222,0.979-9.16,2.938c-2.937,1.953-5.618,4.926-7.556,8.725
					C4.152,62.596,2.994,67.189,3,71.997c-0.006,4.82,1.152,9.414,3.089,13.194c1.937,3.793,4.619,6.772,7.556,8.731
					c2.937,1.958,6.112,2.908,9.16,2.932C25.866,96.884,28.795,96.005,31.505,94.468z"/>
			</g>
		</g>
		<g>
			<g>
				<path fill="#6EB45F" d="M70.966,117.681c0.027-3.111-0.586-6.072-1.42-8.814c-0.833-2.742-1.88-5.259-2.922-7.491
					c-1.048-2.232-2.095-4.166-3.175-5.733c-1.087-1.567-2.22-2.754-3.643-3.573c-1.422-0.825-3.035-1.223-4.952-1.389
					c-1.911-0.167-4.125-0.107-6.591,0.106c-2.464,0.214-5.172,0.582-7.967,1.235c-2.794,0.664-5.669,1.614-8.359,3.193
					c-2.681,1.578-4.91,3.679-6.41,6.333c-1.494,2.653-2.256,5.858-2.024,9.371c0.226,3.502,1.458,7.301,3.77,10.862
					c2.301,3.555,5.69,6.861,9.904,9.289c4.208,2.434,8.788,3.721,13.043,3.935c4.265,0.225,8.193-0.611,11.35-2.172
					c3.169-1.555,5.573-3.828,7.118-6.445C70.239,123.759,70.941,120.791,70.966,117.681z"/>
			</g>
		</g>
	</g>
</g>
<g>
	<path fill="#FFFFFF" d="M181.56,67.089c1.923,0,3.644-0.334,5.162-1.004c1.518-0.669,2.805-1.598,3.861-2.786
		c1.056-1.188,1.862-2.588,2.418-4.2c0.556-1.612,0.834-3.352,0.834-5.218V29.134h2.885v24.747c0,2.206-0.349,4.266-1.046,6.18
		c-0.698,1.914-1.702,3.583-3.012,5.006c-1.311,1.424-2.904,2.541-4.78,3.352c-1.876,0.811-3.983,1.216-6.321,1.216
		s-4.445-0.406-6.321-1.216c-1.876-0.811-3.47-1.928-4.78-3.352c-1.311-1.423-2.315-3.092-3.012-5.006
		c-0.698-1.914-1.046-3.974-1.046-6.18V29.134h2.913v24.719c0,1.867,0.278,3.606,0.834,5.218c0.556,1.612,1.357,3.012,2.404,4.2
		s2.329,2.121,3.847,2.8C177.917,66.75,179.637,67.089,181.56,67.089z"/>
	<path fill="#FFFFFF" d="M221.396,29.233c0.142,0.066,0.297,0.212,0.467,0.438l25.935,34.674c-0.057-0.565-0.085-1.112-0.085-1.64
		V29.134h2.517v40.02h-1.357c-0.246,0-0.448-0.042-0.608-0.127c-0.16-0.084-0.316-0.23-0.466-0.438l-25.992-34.703
		c0.057,0.565,0.085,1.094,0.085,1.584v33.684h-2.545v-40.02h1.442C221.051,29.134,221.254,29.167,221.396,29.233z"/>
	<path fill="#FFFFFF" d="M302.24,62.422c0.188,0,0.348,0.066,0.48,0.198l1.131,1.216c-0.83,0.886-1.73,1.683-2.701,2.39
		s-2.035,1.311-3.195,1.81c-1.16,0.5-2.432,0.887-3.818,1.16c-1.385,0.273-2.908,0.41-4.566,0.41c-2.773,0-5.314-0.485-7.623-1.457
		c-2.311-0.971-4.294-2.348-5.953-4.129c-1.66-1.782-2.946-3.936-3.861-6.462c-0.915-2.526-1.372-5.336-1.372-8.428
		c0-3.036,0.471-5.807,1.414-8.315c0.942-2.507,2.263-4.662,3.959-6.462c1.697-1.8,3.734-3.196,6.109-4.186s4.996-1.485,7.863-1.485
		c2.732,0,5.156,0.424,7.268,1.273c2.111,0.848,4.035,2.046,5.77,3.592l-0.877,1.272c-0.15,0.227-0.387,0.339-0.707,0.339
		c-0.227,0-0.594-0.207-1.102-0.622c-0.51-0.415-1.217-0.872-2.121-1.372c-0.906-0.5-2.033-0.957-3.381-1.372
		c-1.348-0.415-2.965-0.623-4.85-0.623c-2.414,0-4.625,0.415-6.633,1.245c-2.008,0.83-3.732,2.018-5.176,3.563
		c-1.442,1.546-2.569,3.432-3.38,5.657s-1.216,4.723-1.216,7.495c0,2.828,0.41,5.355,1.23,7.58c0.82,2.225,1.947,4.106,3.379,5.643
		c1.434,1.537,3.125,2.715,5.078,3.535c1.951,0.82,4.059,1.23,6.32,1.23c1.432,0,2.711-0.094,3.832-0.283
		c1.121-0.188,2.154-0.471,3.098-0.848c0.941-0.377,1.818-0.839,2.629-1.386s1.613-1.188,2.404-1.923
		c0.094-0.075,0.189-0.137,0.283-0.184C302.051,62.446,302.145,62.422,302.24,62.422z"/>
	<path fill="#FFFFFF" d="M357.815,49.129c0,3.092-0.462,5.897-1.386,8.414s-2.226,4.667-3.903,6.448s-3.69,3.158-6.038,4.129
		s-4.936,1.457-7.764,1.457s-5.411-0.485-7.749-1.457s-4.347-2.348-6.024-4.129s-2.979-3.931-3.902-6.448
		c-0.925-2.517-1.387-5.322-1.387-8.414c0-3.073,0.462-5.869,1.387-8.386c0.923-2.517,2.225-4.667,3.902-6.448
		s3.687-3.163,6.024-4.144c2.338-0.98,4.921-1.471,7.749-1.471s5.416,0.486,7.764,1.457c2.348,0.972,4.36,2.353,6.038,4.144
		c1.678,1.792,2.979,3.945,3.903,6.462S357.815,46.056,357.815,49.129z M354.817,49.129c0-2.79-0.387-5.298-1.159-7.523
		c-0.773-2.225-1.867-4.11-3.281-5.657c-1.414-1.546-3.11-2.729-5.091-3.549c-1.979-0.82-4.167-1.23-6.562-1.23
		c-2.375,0-4.553,0.41-6.533,1.23c-1.979,0.82-3.682,2.003-5.104,3.549c-1.424,1.546-2.527,3.432-3.31,5.657
		c-0.782,2.225-1.174,4.733-1.174,7.523c0,2.81,0.392,5.322,1.174,7.537c0.782,2.216,1.886,4.097,3.31,5.643
		c1.423,1.546,3.125,2.725,5.104,3.535c1.98,0.811,4.158,1.216,6.533,1.216c2.395,0,4.582-0.405,6.562-1.216
		c1.98-0.811,3.677-1.989,5.091-3.535c1.414-1.546,2.508-3.427,3.281-5.643C354.431,54.451,354.817,51.939,354.817,49.129z"/>
	<path fill="#FFFFFF" d="M381.261,51.053v18.101h-2.913v-40.02h10.238c4.601,0,8.046,0.891,10.337,2.673s3.437,4.398,3.437,7.848
		c0,1.527-0.269,2.923-0.807,4.186c-0.537,1.263-1.301,2.371-2.29,3.323c-0.99,0.953-2.188,1.735-3.592,2.348
		c-1.405,0.613-2.975,1.014-4.709,1.202c0.452,0.283,0.857,0.66,1.216,1.131l13.773,17.309h-2.489c-0.32,0-0.589-0.052-0.806-0.156
		c-0.217-0.103-0.42-0.297-0.608-0.58l-12.84-16.234c-0.151-0.208-0.307-0.386-0.467-0.538c-0.16-0.15-0.339-0.269-0.537-0.354
		s-0.435-0.146-0.707-0.184c-0.273-0.038-0.608-0.057-1.004-0.057H381.261z M381.261,48.903h6.929c1.772,0,3.361-0.212,4.766-0.637
		c1.404-0.424,2.593-1.032,3.563-1.824c0.972-0.792,1.712-1.744,2.221-2.856c0.509-1.112,0.764-2.366,0.764-3.761
		c0-2.847-0.929-4.959-2.786-6.335c-1.857-1.376-4.567-2.064-8.131-2.064h-7.325V48.903z"/>
	<path fill="#FFFFFF" d="M426.908,47.602h2.376c0.357,0,0.669-0.014,0.933-0.042s0.505-0.08,0.722-0.155
		c0.217-0.075,0.414-0.184,0.594-0.325c0.179-0.142,0.372-0.316,0.58-0.523l16.149-16.602c0.282-0.32,0.561-0.538,0.834-0.65
		c0.273-0.113,0.599-0.17,0.976-0.17h2.319l-17.479,17.959c-0.358,0.377-0.675,0.669-0.947,0.876
		c-0.273,0.208-0.58,0.377-0.92,0.509c0.396,0.113,0.754,0.288,1.075,0.523c0.32,0.236,0.641,0.542,0.962,0.919l18.411,19.232
		h-2.347c-0.491,0-0.845-0.061-1.061-0.184c-0.218-0.123-0.43-0.316-0.637-0.58l-16.913-17.309c-0.208-0.208-0.4-0.386-0.58-0.538
		c-0.179-0.15-0.377-0.278-0.594-0.382c-0.217-0.104-0.472-0.179-0.764-0.226c-0.292-0.047-0.664-0.071-1.117-0.071h-2.573v19.289
		h-2.913v-40.02h2.913V47.602z"/>
	<path fill="#FFFFFF" d="M495.21,29.134v2.404h-21.07v16.178h17.535v2.347H474.14V66.75h21.127l-0.057,2.404h-23.983v-40.02H495.21z
		"/>
	<path fill="#FFFFFF" d="M549.059,49.129c0,3.092-0.463,5.874-1.387,8.343c-0.924,2.47-2.225,4.573-3.902,6.307
		c-1.679,1.735-3.691,3.064-6.038,3.988c-2.348,0.924-4.936,1.386-7.764,1.386h-14.622v-40.02h14.622
		c2.828,0,5.416,0.462,7.764,1.386c2.347,0.924,4.359,2.253,6.038,3.988c1.678,1.735,2.979,3.837,3.902,6.307
		C548.596,43.285,549.059,46.056,549.059,49.129z M546.061,49.129c0-2.79-0.387-5.279-1.16-7.466s-1.866-4.035-3.28-5.543
		c-1.414-1.508-3.111-2.659-5.091-3.451c-1.98-0.792-4.167-1.188-6.562-1.188h-11.709v35.324h11.709
		c2.395,0,4.581-0.396,6.562-1.188c1.979-0.792,3.677-1.942,5.091-3.451c1.414-1.508,2.507-3.356,3.28-5.543
		C545.674,54.437,546.061,51.939,546.061,49.129z"/>
	<path fill="#FFFFFF" d="M554.012,64.092v0.773h-1.522v4.288h-0.941v-4.288h-1.529v-0.773H554.012z"/>
	<path fill="#FFFFFF" d="M557.332,67.286c0.034,0.081,0.067,0.162,0.1,0.243c0.033-0.084,0.066-0.167,0.102-0.249
		s0.072-0.16,0.112-0.234l1.498-2.804c0.019-0.035,0.038-0.063,0.058-0.084s0.042-0.036,0.066-0.045s0.052-0.015,0.082-0.018
		c0.03-0.002,0.066-0.003,0.108-0.003h0.711v5.061h-0.829v-3.269c0-0.061,0.001-0.127,0.005-0.199
		c0.004-0.073,0.009-0.146,0.016-0.221l-1.529,2.87c-0.035,0.065-0.081,0.116-0.137,0.152c-0.056,0.037-0.121,0.055-0.196,0.055
		h-0.129c-0.075,0-0.141-0.018-0.196-0.055c-0.056-0.036-0.102-0.086-0.137-0.152l-1.55-2.881c0.009,0.077,0.016,0.152,0.019,0.226
		c0.004,0.073,0.006,0.142,0.006,0.205v3.269h-0.83v-5.061h0.711c0.042,0,0.078,0.001,0.108,0.003
		c0.03,0.002,0.058,0.008,0.082,0.018s0.048,0.024,0.068,0.045c0.021,0.021,0.041,0.049,0.06,0.084l1.512,2.811
		C557.262,67.128,557.298,67.206,557.332,67.286z"/>
</g>
<g>
	<path fill="#FFFFFF" d="M179.796,102.579h-1.092V95.39h-9.395v7.189h-1.092V87.575h1.092v6.998h9.395v-6.998h1.092V102.579z"/>
	<path fill="#FFFFFF" d="M203.823,87.575v0.901h-7.9v6.065h6.574v0.88h-6.574v6.256h7.921l-0.021,0.901h-8.992V87.575H203.823z"/>
	<path fill="#FFFFFF" d="M229.144,102.579h-0.837c-0.099,0-0.181-0.026-0.244-0.079c-0.063-0.054-0.113-0.122-0.148-0.207
		l-1.76-4.358h-7.369l-1.76,4.358c-0.028,0.078-0.078,0.145-0.148,0.201c-0.071,0.057-0.156,0.085-0.255,0.085h-0.827l6.139-15.004
		h1.071L229.144,102.579z M219.103,97.129h6.723l-3.054-7.582c-0.106-0.247-0.208-0.544-0.308-0.891
		c-0.049,0.17-0.099,0.333-0.148,0.488s-0.099,0.293-0.148,0.413L219.103,97.129z"/>
	<path fill="#FFFFFF" d="M243.332,101.656h7.104v0.923h-8.196V87.575h1.092V101.656z"/>
	<path fill="#FFFFFF" d="M271.22,87.575v0.923h-5.27v14.081h-1.092V88.498h-5.302v-0.923H271.22z"/>
	<path fill="#FFFFFF" d="M295.926,102.579h-1.092V95.39h-9.396v7.189h-1.092V87.575h1.092v6.998h9.396v-6.998h1.092V102.579z"/>
	<path fill="#FFFFFF" d="M332.104,87.405c0.474,0,0.923,0.081,1.347,0.244c0.425,0.162,0.794,0.382,1.108,0.657
		s0.565,0.596,0.753,0.96s0.288,0.744,0.302,1.14l-0.572,0.116c-0.07,0.015-0.136,0.002-0.196-0.037
		c-0.06-0.038-0.107-0.107-0.143-0.206c-0.036-0.191-0.111-0.407-0.229-0.647c-0.116-0.24-0.281-0.466-0.493-0.679
		c-0.212-0.212-0.474-0.391-0.784-0.535c-0.312-0.145-0.676-0.217-1.093-0.217c-0.424,0-0.81,0.064-1.155,0.195
		c-0.347,0.131-0.644,0.315-0.891,0.552c-0.248,0.237-0.44,0.518-0.578,0.843s-0.207,0.683-0.207,1.071
		c0,0.579,0.148,1.135,0.445,1.665c0.297,0.529,0.757,1.099,1.379,1.707l4.729,4.665c0.317-0.509,0.57-1.039,0.758-1.59
		c0.188-0.552,0.309-1.086,0.365-1.602c0.015-0.092,0.043-0.164,0.085-0.218c0.043-0.053,0.106-0.079,0.191-0.079h0.583
		c-0.015,0.664-0.14,1.349-0.376,2.052c-0.237,0.703-0.575,1.377-1.013,2.02l3.159,3.097h-0.943c-0.127,0-0.231-0.014-0.313-0.042
		c-0.082-0.028-0.176-0.092-0.281-0.191l-2.174-2.131c-0.318,0.367-0.668,0.707-1.05,1.018c-0.382,0.312-0.795,0.578-1.24,0.801
		s-0.921,0.397-1.427,0.524c-0.505,0.128-1.037,0.191-1.596,0.191c-0.53,0-1.054-0.089-1.569-0.266s-0.978-0.437-1.384-0.779
		s-0.735-0.764-0.986-1.262s-0.376-1.065-0.376-1.702c0-0.509,0.092-0.994,0.275-1.458c0.184-0.463,0.435-0.887,0.753-1.272
		c0.318-0.385,0.696-0.729,1.135-1.033s0.912-0.552,1.421-0.742c-0.502-0.565-0.879-1.115-1.13-1.649
		c-0.251-0.533-0.376-1.104-0.376-1.712c0-0.495,0.09-0.953,0.271-1.373c0.18-0.421,0.437-0.787,0.769-1.098
		s0.729-0.556,1.193-0.732C331.015,87.493,331.532,87.405,332.104,87.405z M330.705,101.922c0.495,0,0.963-0.057,1.405-0.17
		c0.441-0.113,0.855-0.271,1.24-0.472c0.386-0.201,0.738-0.44,1.061-0.716c0.321-0.275,0.616-0.579,0.886-0.912l-4.867-4.782
		c-0.043-0.035-0.082-0.074-0.117-0.116c-0.466,0.197-0.889,0.435-1.267,0.71c-0.379,0.276-0.698,0.582-0.96,0.917
		c-0.262,0.336-0.463,0.698-0.604,1.087c-0.142,0.39-0.212,0.792-0.212,1.209c0,0.545,0.104,1.019,0.313,1.421
		c0.209,0.403,0.479,0.741,0.812,1.013c0.332,0.272,0.701,0.476,1.108,0.609C329.908,101.854,330.31,101.922,330.705,101.922z"/>
	<path fill="#FFFFFF" d="M366.905,87.575h0.901c0.205,0,0.336,0.095,0.393,0.286l3.785,12.332c0.078,0.283,0.148,0.604,0.213,0.965
		c0.035-0.177,0.07-0.347,0.105-0.509c0.035-0.163,0.078-0.314,0.127-0.456l4.242-12.332c0.027-0.078,0.077-0.146,0.148-0.202
		c0.07-0.056,0.155-0.084,0.254-0.084h0.297c0.1,0,0.181,0.026,0.244,0.079s0.113,0.122,0.148,0.207l4.241,12.332
		c0.05,0.142,0.094,0.29,0.133,0.445s0.076,0.321,0.111,0.498c0.035-0.169,0.069-0.334,0.101-0.493
		c0.032-0.158,0.065-0.309,0.101-0.45l3.786-12.332c0.021-0.078,0.068-0.146,0.143-0.202c0.074-0.056,0.161-0.084,0.26-0.084h0.827
		l-4.719,15.004h-0.976l-4.432-13.021c-0.057-0.169-0.106-0.35-0.148-0.54c-0.043,0.19-0.093,0.371-0.148,0.54l-4.443,13.021h-0.965
		L366.905,87.575z"/>
	<path fill="#FFFFFF" d="M409.786,87.575v0.901h-7.899v6.065h6.574v0.88h-6.574v6.256h7.921l-0.021,0.901h-8.992V87.575H409.786z"/>
	<path fill="#FFFFFF" d="M424.79,101.656h7.104v0.923h-8.197V87.575h1.093V101.656z"/>
	<path fill="#FFFFFF" d="M446.125,101.656h7.104v0.923h-8.197V87.575h1.093V101.656z"/>
	<path fill="#FFFFFF" d="M467.136,87.612c0.053,0.024,0.111,0.079,0.175,0.164l9.724,13c-0.021-0.212-0.032-0.417-0.032-0.615
		V87.575h0.943v15.004h-0.509c-0.092,0-0.168-0.016-0.228-0.048c-0.061-0.031-0.119-0.086-0.175-0.164l-9.745-13.011
		c0.021,0.212,0.032,0.41,0.032,0.594v12.629h-0.955V87.575h0.541C467.006,87.575,467.082,87.587,467.136,87.612z"/>
	<path fill="#FFFFFF" d="M501.974,87.575v0.901h-7.899v6.065h6.574v0.88h-6.574v6.256h7.921l-0.021,0.901h-8.992V87.575H501.974z"/>
	<path fill="#FFFFFF" d="M523.17,89.398c-0.063,0.121-0.155,0.181-0.275,0.181c-0.093,0-0.211-0.065-0.355-0.196
		c-0.146-0.131-0.342-0.275-0.589-0.435s-0.557-0.306-0.928-0.44c-0.371-0.134-0.829-0.201-1.373-0.201
		c-0.545,0-1.023,0.078-1.437,0.233c-0.414,0.155-0.761,0.367-1.039,0.636c-0.279,0.27-0.492,0.58-0.637,0.934
		s-0.217,0.725-0.217,1.113c0,0.509,0.107,0.93,0.323,1.262c0.215,0.332,0.5,0.615,0.854,0.849s0.754,0.43,1.203,0.588
		c0.449,0.159,0.91,0.316,1.384,0.473c0.474,0.155,0.935,0.326,1.384,0.514s0.85,0.423,1.204,0.705
		c0.353,0.283,0.638,0.631,0.854,1.045c0.215,0.413,0.323,0.928,0.323,1.543c0,0.629-0.108,1.221-0.323,1.775
		c-0.216,0.556-0.529,1.038-0.938,1.447c-0.41,0.41-0.912,0.734-1.506,0.971s-1.272,0.355-2.036,0.355
		c-0.989,0-1.842-0.175-2.556-0.525c-0.714-0.35-1.34-0.828-1.877-1.437l0.297-0.467c0.085-0.105,0.185-0.159,0.297-0.159
		c0.064,0,0.146,0.043,0.244,0.128s0.219,0.188,0.36,0.313s0.312,0.258,0.51,0.403c0.197,0.145,0.427,0.279,0.688,0.402
		c0.262,0.124,0.563,0.229,0.901,0.313c0.34,0.085,0.725,0.128,1.156,0.128c0.594,0,1.124-0.091,1.59-0.271
		c0.467-0.181,0.861-0.426,1.183-0.737c0.321-0.311,0.567-0.68,0.737-1.107s0.254-0.886,0.254-1.374
		c0-0.529-0.107-0.966-0.323-1.309c-0.216-0.344-0.5-0.63-0.854-0.859s-0.755-0.422-1.203-0.578
		c-0.449-0.155-0.91-0.308-1.384-0.456s-0.936-0.314-1.384-0.498c-0.449-0.184-0.851-0.419-1.204-0.705s-0.638-0.644-0.854-1.071
		s-0.323-0.963-0.323-1.606c0-0.502,0.096-0.986,0.286-1.452c0.191-0.467,0.471-0.879,0.838-1.235
		c0.367-0.357,0.822-0.644,1.362-0.859c0.541-0.216,1.158-0.323,1.851-0.323c0.777,0,1.476,0.124,2.095,0.371
		c0.618,0.247,1.182,0.626,1.69,1.135L523.17,89.398z"/>
	<path fill="#FFFFFF" d="M545.119,89.398c-0.063,0.121-0.155,0.181-0.275,0.181c-0.093,0-0.211-0.065-0.355-0.196
		c-0.146-0.131-0.342-0.275-0.589-0.435s-0.557-0.306-0.928-0.44c-0.371-0.134-0.829-0.201-1.373-0.201
		c-0.545,0-1.023,0.078-1.437,0.233c-0.414,0.155-0.761,0.367-1.039,0.636c-0.279,0.27-0.492,0.58-0.637,0.934
		s-0.217,0.725-0.217,1.113c0,0.509,0.107,0.93,0.323,1.262c0.215,0.332,0.5,0.615,0.854,0.849s0.754,0.43,1.203,0.588
		c0.449,0.159,0.91,0.316,1.384,0.473c0.474,0.155,0.935,0.326,1.384,0.514s0.85,0.423,1.204,0.705
		c0.353,0.283,0.638,0.631,0.854,1.045c0.215,0.413,0.323,0.928,0.323,1.543c0,0.629-0.108,1.221-0.323,1.775
		c-0.216,0.556-0.529,1.038-0.938,1.447c-0.41,0.41-0.912,0.734-1.506,0.971s-1.272,0.355-2.036,0.355
		c-0.989,0-1.842-0.175-2.556-0.525c-0.714-0.35-1.34-0.828-1.877-1.437l0.297-0.467c0.085-0.105,0.185-0.159,0.297-0.159
		c0.064,0,0.146,0.043,0.244,0.128s0.219,0.188,0.36,0.313s0.312,0.258,0.51,0.403c0.197,0.145,0.427,0.279,0.688,0.402
		c0.262,0.124,0.563,0.229,0.901,0.313c0.34,0.085,0.725,0.128,1.156,0.128c0.594,0,1.124-0.091,1.59-0.271
		c0.467-0.181,0.861-0.426,1.183-0.737c0.321-0.311,0.567-0.68,0.737-1.107s0.254-0.886,0.254-1.374
		c0-0.529-0.107-0.966-0.323-1.309c-0.216-0.344-0.5-0.63-0.854-0.859s-0.755-0.422-1.203-0.578
		c-0.449-0.155-0.91-0.308-1.384-0.456s-0.936-0.314-1.384-0.498c-0.449-0.184-0.851-0.419-1.204-0.705s-0.638-0.644-0.854-1.071
		s-0.323-0.963-0.323-1.606c0-0.502,0.096-0.986,0.286-1.452c0.191-0.467,0.471-0.879,0.838-1.235
		c0.367-0.357,0.822-0.644,1.362-0.859c0.541-0.216,1.158-0.323,1.851-0.323c0.777,0,1.476,0.124,2.095,0.371
		c0.618,0.247,1.182,0.626,1.69,1.135L545.119,89.398z"/>
</g>
</svg>
